# xmcd CD database file
#
# Track frame offsets:
#	187
#	30210
#	65432
#	94275
#	118790
#	148777
#	189687
#	215635
#
# Disc length: 3383 seconds
#
# Revision: 0
# Processed by: cddbd v1.5PL3 Copyright (c) Steve Scherf et al.
# Submitted via: CDex 1.50
#
DISCID=760d3508
DTITLE=LIGHTNING BLUES GUITAR　 - Live Lightning Vol.1(近藤房之助, 西慎嗣, Alan Mirikitani, 山岸潤史, REWARD, 小島良喜, Cornell Williams, Char, 仲井戸麗市, 石田長生, 大村憲司)
DYEAR=2003
DGENRE=Blues
TTITLE0=GOING DOWN 
TTITLE1=I WANNA TA−TA YOU BABY 
TTITLE2=ROCK ME BABY 
TTITLE3=LOVE YOU CAN’T DENY 
TTITLE4=CROSS TO BEAR 
TTITLE5=DOUBLE TROUBLE 
TTITLE6=HEY JIMI 
TTITLE7=PEACE ON EARTH 
EXTD=YEAR: 2003/07/27
EXTT0=
EXTT1=
EXTT2=
EXTT3=
EXTT4=
EXTT5=
EXTT6=
EXTT7=
PLAYORDER=
